<svg width="68" height="74" viewBox="0 0 68 74" fill="none" xmlns="http://www.w3.org/2000/svg">
<path d="M22.6667 21.5308C21.9152 21.5308 21.1945 21.8556 20.6632 22.4338C20.1318 23.0121 19.8333 23.7963 19.8333 24.6141C19.8333 25.4318 20.1318 26.2161 20.6632 26.7943C21.1945 27.3726 21.9152 27.6974 22.6667 27.6974H45.3333C46.0848 27.6974 46.8054 27.3726 47.3368 26.7943C47.8682 26.2161 48.1667 25.4318 48.1667 24.6141C48.1667 23.7963 47.8682 23.0121 47.3368 22.4338C46.8054 21.8556 46.0848 21.5308 45.3333 21.5308H22.6667ZM19.8333 36.9998C19.8333 36.1821 20.1318 35.3978 20.6632 34.8196C21.1945 34.2414 21.9152 33.9165 22.6667 33.9165H45.3333C46.0848 33.9165 46.8054 34.2414 47.3368 34.8196C47.8682 35.3978 48.1667 36.1821 48.1667 36.9998C48.1667 37.8176 47.8682 38.6019 47.3368 39.1801C46.8054 39.7583 46.0848 40.0832 45.3333 40.0832H22.6667C21.9152 40.0832 21.1945 39.7583 20.6632 39.1801C20.1318 38.6019 19.8333 37.8176 19.8333 36.9998ZM22.6667 46.3023C21.9152 46.3023 21.1945 46.6271 20.6632 47.2053C20.1318 47.7836 19.8333 48.5678 19.8333 49.3856C19.8333 50.2033 20.1318 50.9876 20.6632 51.5658C21.1945 52.1441 21.9152 52.4689 22.6667 52.4689H45.3333C46.0848 52.4689 46.8054 52.1441 47.3368 51.5658C47.8682 50.9876 48.1667 50.2033 48.1667 49.3856C48.1667 48.5678 47.8682 47.7836 47.3368 47.2053C46.8054 46.6271 46.0848 46.3023 45.3333 46.3023H22.6667Z" fill="black"/>
<path fill-rule="evenodd" clip-rule="evenodd" d="M62.3333 36.9998C62.3333 54.0291 49.6485 67.8332 34 67.8332C18.3515 67.8332 5.66666 54.0291 5.66666 36.9998C5.66666 19.9706 18.3515 6.1665 34 6.1665C49.6485 6.1665 62.3333 19.9706 62.3333 36.9998ZM56.6667 36.9998C56.6667 43.5418 54.2786 49.8159 50.0278 54.4418C45.7769 59.0677 40.0116 61.6665 34 61.6665C27.9884 61.6665 22.2231 59.0677 17.9722 54.4418C13.7214 49.8159 11.3333 43.5418 11.3333 36.9998C11.3333 30.4578 13.7214 24.1838 17.9722 19.5579C22.2231 14.932 27.9884 12.3332 34 12.3332C40.0116 12.3332 45.7769 14.932 50.0278 19.5579C54.2786 24.1838 56.6667 30.4578 56.6667 36.9998Z" fill="black"/>
</svg>
