<svg width="256" height="256" viewBox="0 0 256 256" fill="none" xmlns="http://www.w3.org/2000/svg">
<path d="M209.164 186C208.614 186.913 207.822 187.67 206.869 188.197C205.915 188.723 204.834 189 203.733 189H53.2631C52.1632 188.999 51.0828 188.721 50.1306 188.194C49.1784 187.667 48.3879 186.91 47.8384 185.998C47.2888 185.086 46.9997 184.052 47 182.999C47.0003 181.947 47.29 180.913 47.84 180.001C59.7757 160.256 78.169 146.098 99.6345 139.387C89.0167 133.339 80.7673 124.122 76.1533 113.154C71.5392 102.185 70.8155 90.0705 74.0933 78.6702C77.3712 67.2699 84.4693 57.2144 94.2977 50.0478C104.126 42.8813 116.141 39 128.498 39C140.855 39 152.87 42.8813 162.698 50.0478C172.527 57.2144 179.625 67.2699 182.903 78.6702C186.181 90.0705 185.457 102.185 180.843 113.154C176.229 124.122 167.979 133.339 157.362 139.387C178.827 146.098 197.22 160.256 209.156 180.001C209.708 180.913 209.999 181.947 210 183C210.001 184.053 209.713 185.088 209.164 186Z" fill="black"/>
<path d="M48.4372 229.336C47.3385 229.336 46.3625 229.229 45.5092 229.016C44.6665 228.803 43.9732 228.515 43.4292 228.152C42.8959 227.789 42.4532 227.341 42.1012 226.808C41.7599 226.264 41.5199 225.693 41.3812 225.096C41.2425 224.499 41.1732 223.837 41.1732 223.112V210.248H46.8692V222.392C46.8692 223.747 47.0079 224.68 47.2852 225.192C47.5732 225.693 47.9892 225.944 48.5332 225.944C48.8319 225.944 49.0932 225.896 49.3172 225.8C49.5412 225.693 49.7492 225.517 49.9412 225.272C50.1332 225.016 50.2772 224.653 50.3732 224.184C50.4799 223.704 50.5332 223.123 50.5332 222.44V210.248H55.5892V223.208C55.5892 223.923 55.5252 224.568 55.3972 225.144C55.2799 225.72 55.0559 226.28 54.7252 226.824C54.4052 227.357 53.9785 227.805 53.4452 228.168C52.9225 228.52 52.2345 228.803 51.3812 229.016C50.5385 229.229 49.5572 229.336 48.4372 229.336ZM63.0321 229H57.7361V210.248H59.8481C60.4134 210.248 61.2667 210.227 62.4081 210.184C63.5494 210.131 64.4881 210.104 65.2241 210.104C67.2934 210.104 68.8614 210.653 69.9281 211.752C70.9947 212.851 71.5281 214.499 71.5281 216.696C71.5281 218.019 71.3521 219.224 71.0001 220.312C70.6587 221.389 70.1947 222.275 69.6081 222.968C69.0214 223.661 68.3547 224.195 67.6081 224.568C66.8614 224.941 66.0721 225.128 65.2401 225.128C65.1334 225.128 65.0214 225.128 64.9041 225.128C64.7974 225.128 64.6961 225.128 64.6001 225.128C64.5147 225.117 64.4081 225.112 64.2801 225.112C64.1627 225.101 64.0667 225.096 63.9921 225.096C63.9281 225.085 63.8321 225.08 63.7041 225.08C63.5867 225.069 63.5067 225.064 63.4641 225.064C63.4214 225.064 63.3414 225.059 63.2241 225.048C63.1067 225.037 63.0427 225.032 63.0321 225.032V229ZM66.2801 215.992C66.2801 215.203 66.0667 214.563 65.6401 214.072C65.2134 213.581 64.6001 213.336 63.8001 213.336H63.0321V221.656H63.6241C64.4667 221.656 65.1174 221.373 65.5761 220.808C66.0454 220.243 66.2801 219.427 66.2801 218.36V215.992ZM72.7361 229V210.248H78.0321V224.712H82.8001V229H72.7361ZM89.6913 221.752C89.6913 223.523 89.8246 224.755 90.0913 225.448C90.3686 226.141 90.8486 226.488 91.5313 226.488C92.0326 226.488 92.4113 226.365 92.6673 226.12C92.9233 225.864 93.1153 225.347 93.2433 224.568C93.382 223.779 93.4513 222.6 93.4513 221.032V217.176C93.4513 215.651 93.302 214.515 93.0033 213.768C92.7046 213.021 92.214 212.648 91.5313 212.648C90.8486 212.648 90.3686 213.016 90.0913 213.752C89.8246 214.477 89.6913 215.805 89.6913 217.736V221.752ZM91.1953 229.336C90.31 229.336 89.51 229.256 88.7953 229.096C88.0913 228.936 87.4833 228.712 86.9713 228.424C86.4593 228.136 86.0113 227.768 85.6273 227.32C85.254 226.872 84.95 226.392 84.7153 225.88C84.4913 225.368 84.31 224.771 84.1713 224.088C84.0326 223.395 83.9366 222.707 83.8833 222.024C83.83 221.331 83.8033 220.552 83.8033 219.688C83.8033 218.408 83.8673 217.293 83.9953 216.344C84.134 215.395 84.3846 214.504 84.7473 213.672C85.11 212.829 85.59 212.147 86.1873 211.624C86.7953 211.101 87.574 210.691 88.5233 210.392C89.4833 210.093 90.614 209.944 91.9153 209.944C92.8113 209.944 93.6166 210.029 94.3313 210.2C95.046 210.36 95.6593 210.584 96.1713 210.872C96.6833 211.16 97.126 211.533 97.4993 211.992C97.8833 212.451 98.1873 212.941 98.4113 213.464C98.646 213.976 98.8326 214.579 98.9713 215.272C99.11 215.965 99.206 216.653 99.2593 217.336C99.3126 218.019 99.3393 218.792 99.3393 219.656C99.3393 220.936 99.27 222.051 99.1313 223C98.9926 223.949 98.742 224.84 98.3793 225.672C98.0166 226.493 97.5313 227.165 96.9233 227.688C96.3153 228.2 95.5313 228.605 94.5713 228.904C93.622 229.192 92.4966 229.336 91.1953 229.336ZM110.202 229L109.482 226.008H104.938L104.33 229H99.6257L104.506 211.544L104.122 210.248H110.73L116.074 229H110.202ZM107.002 215.752L105.594 222.744H108.698L107.002 215.752ZM123.025 226.376C123.835 226.376 124.454 225.875 124.881 224.872C125.318 223.869 125.537 222.216 125.537 219.912V218.296C125.537 216.611 125.334 215.309 124.929 214.392C124.523 213.475 123.947 213.016 123.201 213.016H122.001V226.376H123.025ZM123.521 229.112C123.137 229.112 122.539 229.091 121.729 229.048C120.929 229.016 120.102 229 119.249 229H116.705V210.248H119.249C119.963 210.237 120.742 210.211 121.585 210.168C122.427 210.125 123.089 210.104 123.569 210.104C126.289 210.104 128.235 210.867 129.409 212.392C130.593 213.917 131.185 216.141 131.185 219.064C131.185 220.056 131.115 221 130.977 221.896C130.849 222.792 130.603 223.693 130.241 224.6C129.878 225.496 129.419 226.269 128.865 226.92C128.31 227.571 127.574 228.099 126.657 228.504C125.739 228.909 124.694 229.112 123.521 229.112ZM144.407 229H139.111V210.248H141.223C141.788 210.248 142.642 210.227 143.783 210.184C144.924 210.131 145.863 210.104 146.599 210.104C148.668 210.104 150.236 210.653 151.303 211.752C152.37 212.851 152.903 214.499 152.903 216.696C152.903 218.019 152.727 219.224 152.375 220.312C152.034 221.389 151.57 222.275 150.983 222.968C150.396 223.661 149.73 224.195 148.983 224.568C148.236 224.941 147.447 225.128 146.615 225.128C146.508 225.128 146.396 225.128 146.279 225.128C146.172 225.128 146.071 225.128 145.975 225.128C145.89 225.117 145.783 225.112 145.655 225.112C145.538 225.101 145.442 225.096 145.367 225.096C145.303 225.085 145.207 225.08 145.079 225.08C144.962 225.069 144.882 225.064 144.839 225.064C144.796 225.064 144.716 225.059 144.599 225.048C144.482 225.037 144.418 225.032 144.407 225.032V229ZM147.655 215.992C147.655 215.203 147.442 214.563 147.015 214.072C146.588 213.581 145.975 213.336 145.175 213.336H144.407V221.656H144.999C145.842 221.656 146.492 221.373 146.951 220.808C147.42 220.243 147.655 219.427 147.655 218.36V215.992ZM159.407 229H154.111V210.248H159.407V217.672H163.519V210.248H168.815V229H163.519V221.352H159.407V229ZM176.363 221.752C176.363 223.523 176.497 224.755 176.763 225.448C177.041 226.141 177.521 226.488 178.203 226.488C178.705 226.488 179.083 226.365 179.339 226.12C179.595 225.864 179.787 225.347 179.915 224.568C180.054 223.779 180.123 222.6 180.123 221.032V217.176C180.123 215.651 179.974 214.515 179.675 213.768C179.377 213.021 178.886 212.648 178.203 212.648C177.521 212.648 177.041 213.016 176.763 213.752C176.497 214.477 176.363 215.805 176.363 217.736V221.752ZM177.867 229.336C176.982 229.336 176.182 229.256 175.467 229.096C174.763 228.936 174.155 228.712 173.643 228.424C173.131 228.136 172.683 227.768 172.299 227.32C171.926 226.872 171.622 226.392 171.387 225.88C171.163 225.368 170.982 224.771 170.843 224.088C170.705 223.395 170.609 222.707 170.555 222.024C170.502 221.331 170.475 220.552 170.475 219.688C170.475 218.408 170.539 217.293 170.667 216.344C170.806 215.395 171.057 214.504 171.419 213.672C171.782 212.829 172.262 212.147 172.859 211.624C173.467 211.101 174.246 210.691 175.195 210.392C176.155 210.093 177.286 209.944 178.587 209.944C179.483 209.944 180.289 210.029 181.003 210.2C181.718 210.36 182.331 210.584 182.843 210.872C183.355 211.16 183.798 211.533 184.171 211.992C184.555 212.451 184.859 212.941 185.083 213.464C185.318 213.976 185.505 214.579 185.643 215.272C185.782 215.965 185.878 216.653 185.931 217.336C185.985 218.019 186.011 218.792 186.011 219.656C186.011 220.936 185.942 222.051 185.803 223C185.665 223.949 185.414 224.84 185.051 225.672C184.689 226.493 184.203 227.165 183.595 227.688C182.987 228.2 182.203 228.605 181.243 228.904C180.294 229.192 179.169 229.336 177.867 229.336ZM190.65 229V214.488H186.906V210.248H199.802V214.488H196.058V229H190.65ZM206.644 221.752C206.644 223.523 206.778 224.755 207.044 225.448C207.322 226.141 207.802 226.488 208.484 226.488C208.986 226.488 209.364 226.365 209.62 226.12C209.876 225.864 210.068 225.347 210.196 224.568C210.335 223.779 210.404 222.6 210.404 221.032V217.176C210.404 215.651 210.255 214.515 209.956 213.768C209.658 213.021 209.167 212.648 208.484 212.648C207.802 212.648 207.322 213.016 207.044 213.752C206.778 214.477 206.644 215.805 206.644 217.736V221.752ZM208.148 229.336C207.263 229.336 206.463 229.256 205.748 229.096C205.044 228.936 204.436 228.712 203.924 228.424C203.412 228.136 202.964 227.768 202.58 227.32C202.207 226.872 201.903 226.392 201.668 225.88C201.444 225.368 201.263 224.771 201.124 224.088C200.986 223.395 200.89 222.707 200.836 222.024C200.783 221.331 200.756 220.552 200.756 219.688C200.756 218.408 200.82 217.293 200.948 216.344C201.087 215.395 201.338 214.504 201.7 213.672C202.063 212.829 202.543 212.147 203.14 211.624C203.748 211.101 204.527 210.691 205.476 210.392C206.436 210.093 207.567 209.944 208.868 209.944C209.764 209.944 210.57 210.029 211.284 210.2C211.999 210.36 212.612 210.584 213.124 210.872C213.636 211.16 214.079 211.533 214.452 211.992C214.836 212.451 215.14 212.941 215.364 213.464C215.599 213.976 215.786 214.579 215.924 215.272C216.063 215.965 216.159 216.653 216.212 217.336C216.266 218.019 216.292 218.792 216.292 219.656C216.292 220.936 216.223 222.051 216.084 223C215.946 223.949 215.695 224.84 215.332 225.672C214.97 226.493 214.484 227.165 213.876 227.688C213.268 228.2 212.484 228.605 211.524 228.904C210.575 229.192 209.45 229.336 208.148 229.336Z" fill="black"/>
</svg>
