<svg width="20" height="20" viewBox="0 0 20 20" fill="none" xmlns="http://www.w3.org/2000/svg">
<path d="M3.21901 2.15408L9.99701 8.92708L16.703 2.22208C17.16 1.81508 17.633 2.05808 17.822 2.26208C17.9432 2.40981 18.0058 2.59704 17.9977 2.78798C17.9895 2.97892 17.9113 3.16017 17.778 3.29708L11.071 10.0011L17.778 16.7031C18.076 16.9531 18.076 17.4431 17.837 17.7171C17.597 17.9901 17.157 18.1481 16.742 17.8241L9.99701 11.0751L3.24401 17.8271C2.94801 18.0921 2.46001 18.0381 2.21901 17.7751C1.97701 17.5111 1.88501 17.0551 2.19401 16.7331L8.92301 10.0011L2.22201 3.29708C1.97701 3.02708 1.89201 2.53308 2.22201 2.22208C2.55201 1.91108 3.04401 1.95408 3.21901 2.15408Z" fill="black"/>
</svg>
