<svg width="102" height="109" viewBox="0 0 102 109" fill="none" xmlns="http://www.w3.org/2000/svg">
<path d="M101.361 62.3719C101.171 61.6161 100.898 60.8834 100.548 60.187C100.373 59.8397 100.179 59.5016 99.9694 59.1738C99.8619 59.0115 99.752 58.8509 99.6396 58.692C99.5232 58.5357 99.4043 58.3815 99.2827 58.2293C99.157 58.0804 99.0293 57.9331 98.8997 57.7875C98.7656 57.6459 98.6318 57.5037 98.4926 57.3668C98.2104 57.0959 97.9146 56.8395 97.6064 56.5985C97.295 56.3599 96.9709 56.1384 96.6354 55.935C96.2984 55.7322 95.95 55.549 95.592 55.3863C94.8756 55.0601 94.1233 54.8192 93.3506 54.6687C92.9674 54.594 92.5802 54.5411 92.191 54.5102C91.9974 54.4985 91.8035 54.4868 91.6104 54.4814C91.4855 54.4802 91.3608 54.4826 91.2361 54.4842C90.7376 54.424 90.2386 54.3675 89.7399 54.3094C89.0466 54.2316 88.3505 54.1685 87.6556 54.0998C86.9588 54.0417 86.2634 53.9754 85.5652 53.9238L83.4717 53.7654L79.2844 53.4506C78.5881 53.3892 77.8901 53.3374 77.1952 53.2678C76.5 53.2006 75.8039 53.1375 75.1111 53.0573C74.4174 52.9848 73.7246 52.9038 73.0329 52.8143C71.6497 52.6464 70.2701 52.4497 68.895 52.2244C67.9281 52.0672 66.9646 51.8891 66.0054 51.6902C65.6888 50.6393 65.3304 49.6821 64.9343 48.8102C65.8556 48.8548 66.7742 48.9218 67.6899 49.0092C68.7962 49.1155 69.9 49.2467 71.0004 49.4027C71.5512 49.4759 72.101 49.5553 72.6502 49.6404C73.2 49.7208 73.7487 49.8089 74.2971 49.8998C74.846 49.9868 75.3935 50.0845 75.9415 50.1797C76.4897 50.2727 77.0358 50.3812 77.5831 50.4813C78.6774 50.6824 79.7705 50.8938 80.8631 51.1073L84.1437 51.7301C85.2387 51.9265 86.3344 52.1405 87.4334 52.3066C87.5677 52.3261 87.7196 52.3594 87.8595 52.3594H87.8766L88.3999 52.3282C88.5745 52.32 88.7499 52.2942 88.9247 52.2811C89.2749 52.248 89.6234 52.1862 89.9691 52.1128C90.6593 51.9626 91.339 51.7409 91.9781 51.4362C92.6174 51.1349 93.2212 50.7636 93.7786 50.3292C94.0533 50.1101 94.3169 49.8773 94.5682 49.6317C94.6922 49.5077 94.8124 49.38 94.9329 49.253L95.2763 48.8557C95.3845 48.7184 95.4926 48.5808 95.596 48.4399C95.6956 48.2962 95.7952 48.1526 95.8906 48.0066C96.078 47.712 96.2504 47.4081 96.4074 47.0963C96.5621 46.7835 96.7007 46.463 96.8224 46.136C96.9426 45.8085 97.0455 45.4749 97.1306 45.1366C97.2993 44.461 97.3932 43.7689 97.4105 43.0727C97.4182 42.7274 97.4081 42.3818 97.3803 42.0375C97.364 41.8667 97.3447 41.6962 97.3224 41.5261L97.2368 41.0215L97.2753 41.3576L97.2087 40.7831L97.1379 40.245L96.9844 39.1847C96.8766 38.4818 96.7645 37.7841 96.6345 37.0903C96.5063 36.3973 96.3697 35.7058 96.2248 35.0161C96.0797 34.3273 95.9325 33.6398 95.7659 32.9564C95.6029 32.2727 95.4314 31.5911 95.2514 30.9117C95.0748 30.2317 94.8861 29.5549 94.6856 28.8816C94.4869 28.2078 94.2803 27.5365 94.0657 26.8676C93.8468 26.1996 93.6242 25.534 93.3842 24.873C93.1501 24.2106 92.9046 23.5522 92.648 22.8982C92.3836 22.2462 92.1281 21.5932 91.8455 20.9487C91.5701 20.3027 91.2731 19.6645 90.9774 19.028C90.8318 18.709 90.6706 18.3952 90.5152 18.0806C90.3609 17.7651 90.2013 17.4522 90.0363 17.1422L89.5428 16.2122L89.0215 15.2963C88.8495 14.9903 88.6698 14.6887 88.4827 14.3918C88.2954 14.0944 88.1194 13.7927 87.9237 13.5005C87.5367 12.9143 87.1603 12.326 86.741 11.7633C86.3386 11.1921 85.8996 10.6439 85.467 10.0985C85.3725 9.97908 85.238 9.89779 85.0883 9.8696C84.9386 9.8414 84.7838 9.86819 84.6523 9.94505C84.5208 10.0219 84.4215 10.1437 84.3726 10.2879C84.3238 10.4321 84.3286 10.5892 84.3863 10.7302L84.3985 10.7602C84.6553 11.3906 84.9438 11.9963 85.1815 12.6291C85.3015 12.9445 85.4374 13.2497 85.5544 13.5654L85.9081 14.5076C86.0278 14.8195 86.1288 15.1413 86.2399 15.4566C86.3473 15.7737 86.4619 16.0866 86.5615 16.4067L86.8699 17.3595L87.1596 18.318C87.356 18.9544 87.5236 19.6017 87.7043 20.2416C87.8747 20.8859 88.0432 21.529 88.1946 22.1775C88.3594 22.8209 88.4979 23.4731 88.6444 24.1207C88.7782 24.7727 88.9226 25.4201 89.0461 26.0735C89.1795 26.7234 89.288 27.3804 89.4075 28.0327C89.5231 28.6866 89.632 29.3409 89.7319 29.9972C89.8292 30.6539 89.9283 31.3095 90.0176 31.9664C90.1102 32.6227 90.191 33.2808 90.267 33.9387C90.4203 35.2542 90.5583 36.5702 90.6588 37.8851C90.7095 38.5423 90.762 39.1978 90.799 39.8503L90.8499 40.8244L90.8686 41.3046L90.8789 41.7497L90.9174 42.0858C90.9188 42.1434 90.9218 42.2006 90.9263 42.2573C90.9263 42.3141 90.9244 42.3703 90.927 42.4261C90.9242 42.5364 90.9165 42.6465 90.9038 42.7561C90.8636 43.0769 90.7707 43.3888 90.6288 43.6793C90.5811 43.7748 90.5291 43.8681 90.473 43.9589C90.4151 44.0489 90.353 44.1354 90.2881 44.2198L90.1856 44.3419C90.1481 44.3798 90.1128 44.419 90.079 44.4595C90.0403 44.4959 90.0038 44.5338 89.9672 44.5716L89.85 44.677C89.7689 44.7438 89.6867 44.8076 89.6013 44.8666C89.5151 44.9243 89.4307 44.9827 89.3419 45.034C89.2528 45.0844 89.1619 45.1308 89.0693 45.172C88.9756 45.2112 88.882 45.2491 88.7871 45.2841C88.6913 45.3172 88.5939 45.3457 88.4953 45.3694C88.396 45.3926 88.2947 45.4076 88.1925 45.4266L88.0367 45.4465C88.0135 45.4474 87.99 45.45 87.9668 45.4516C86.9787 45.3488 85.9894 45.2573 84.9992 45.1772L81.6687 44.9374C80.5578 44.8634 79.447 44.7872 78.3378 44.7009C77.936 44.6693 77.5339 44.6405 77.1321 44.6086C78.4157 43.8545 79.4967 42.7995 80.2817 41.5345C81.0893 40.2321 81.5988 38.6911 81.6652 37.1227C81.672 36.9274 81.6828 36.7313 81.6762 36.5367C81.6739 36.3504 81.6664 36.1144 81.6581 36.0202L81.6077 35.2352C81.5724 34.7065 81.5278 34.1785 81.4737 33.6513C81.3679 32.602 81.2443 31.5546 81.1029 30.5095C80.9637 29.4666 80.7842 28.4313 80.6051 27.4024L80.3208 25.8656L79.9997 24.3462C79.568 22.3291 79.0512 20.3644 78.4967 18.4765C78.2149 17.551 77.9186 16.6299 77.6079 15.7137C77.3011 14.8153 76.9711 13.9446 76.6425 13.0995C75.975 11.4124 75.266 9.8407 74.5259 8.42438C73.7911 7.00641 73.0273 5.74242 72.2707 4.66734C71.5212 3.58922 70.7738 2.70281 70.107 2.01984C69.4428 1.33383 68.8505 0.858047 68.4363 0.554063C68.2786 0.437466 68.1165 0.326841 67.9505 0.222422L67.7815 0.113672C67.6566 0.0333696 67.5075 -0.000591415 67.3601 0.0176995C67.2127 0.0359904 67.0765 0.105375 66.975 0.213778C66.8735 0.322181 66.8132 0.46274 66.8046 0.610991C66.7961 0.759242 66.8398 0.905799 66.9281 1.02516L66.952 1.0575L67.0585 1.20117C67.1302 1.29328 67.2302 1.43648 67.3585 1.62328C67.7252 2.16418 68.0587 2.72694 68.3569 3.30844C68.7453 4.05938 69.1674 4.99805 69.5862 6.10758C69.8068 6.69848 70.0153 7.29384 70.2115 7.89328C70.4175 8.52867 70.6163 9.20414 70.8195 9.91055C71.2448 11.4407 71.6244 12.9832 71.9578 14.5359C72.1421 15.3628 72.308 16.219 72.4784 17.0937C72.6504 17.9679 72.8121 18.8651 72.9628 19.7801C73.2846 21.6056 73.5598 23.5048 73.822 25.4332L74.1828 28.3481C74.2983 29.3245 74.3876 30.3066 74.4858 31.2846C74.5818 32.2579 74.6612 33.2327 74.7239 34.2087L74.8097 35.6503L74.8442 36.3734C74.8524 36.5299 74.8486 36.5449 74.8507 36.6096C74.8556 36.6659 74.8474 36.72 74.8477 36.7751C74.8253 37.2029 74.704 37.6197 74.4933 37.9927C74.3871 38.179 74.2519 38.3482 74.1068 38.5071C73.9637 38.6682 73.8013 38.811 73.6233 38.9323C73.4464 39.0523 73.2574 39.1502 73.0617 39.2257C72.8679 39.3073 72.6654 39.3661 72.4561 39.4005C72.4041 39.4109 72.3506 39.4127 72.2979 39.4219C72.2508 39.428 72.2445 39.4287 72.2152 39.438L72.206 39.4413L72.1636 39.4399L72.0788 39.4371L71.9093 39.4313L71.8671 39.4298C72.037 39.4455 71.9021 39.4334 71.9346 39.4366L71.9135 39.4352L71.8292 39.4301L71.6609 39.4198L70.3313 39.3574L69.0375 39.2974L67.7806 39.2571C66.985 39.2289 66.1892 39.2098 65.3932 39.1997C63.9977 39.1755 62.6019 39.1739 61.2063 39.1948C60.2304 39.2095 59.3527 39.236 58.5856 39.2667C60.6771 36.863 61.9854 33.4479 61.9854 29.6564C61.9854 22.3795 57.1723 16.4805 51.2353 16.4805C45.2984 16.4805 40.4852 22.3795 40.4852 29.6564C40.4852 33.2145 41.6379 36.4406 43.508 38.8113C42.7052 38.802 41.7741 38.7991 40.7299 38.8111C39.4849 38.8268 38.0815 38.8554 36.5536 38.9175C35.7592 38.9456 34.9651 38.9816 34.1714 39.0253L32.917 39.0907C32.0442 39.1471 31.1714 39.2039 30.2986 39.2609L30.1306 39.274L30.0464 39.2805L30.0253 39.2822C30.0598 39.2789 29.9185 39.2916 30.097 39.2754L30.0549 39.2775L29.8856 39.2859L29.8008 39.2902L29.7586 39.2923L29.7511 39.2895C29.7258 39.2815 29.7244 39.2827 29.6801 39.2784C29.6299 39.2712 29.5793 39.2712 29.5296 39.263C29.3309 39.2366 29.1359 39.1872 28.9486 39.1155C28.7568 39.0483 28.5732 38.9594 28.4016 38.8505C28.226 38.7383 28.0647 38.6051 27.9216 38.4537C27.776 38.3037 27.6399 38.1417 27.5311 37.9627C27.3141 37.6008 27.1828 37.1941 27.1472 36.7737C27.1458 36.7191 27.1357 36.6654 27.139 36.6094C27.1395 36.5452 27.1336 36.5304 27.1413 36.3736L27.1711 35.6503L27.2466 34.208C27.3012 33.2311 27.3726 32.2553 27.4606 31.2809C27.5503 30.3016 27.6349 29.3184 27.7437 28.3406L27.9136 26.8772L28.0882 25.4212C28.3404 23.4895 28.6106 21.5878 28.9275 19.7595C29.074 18.8603 29.2345 17.9635 29.4089 17.0693C29.5786 16.1934 29.746 15.3366 29.9304 14.5085C30.2899 12.8501 30.6785 11.2969 31.081 9.87984C31.2867 9.1732 31.4895 8.49797 31.6992 7.86281C31.8989 7.2636 32.1114 6.66878 32.3367 6.07875C32.764 4.97086 33.1952 4.035 33.5916 3.28805C33.9874 2.54063 34.3451 1.98141 34.6092 1.61484C34.7407 1.43109 34.8422 1.2893 34.9151 1.19859L35.0231 1.05703L35.0477 1.02492C35.1385 0.905806 35.1842 0.758372 35.1766 0.608789C35.169 0.459205 35.1087 0.317146 35.0063 0.207825C34.9039 0.0985046 34.7661 0.0289934 34.6174 0.0116283C34.4686 -0.00573677 34.3185 0.0301678 34.1937 0.112969L34.0263 0.223829C33.9148 0.296719 33.7498 0.405 33.5463 0.561094C33.1413 0.873047 32.5512 1.34906 31.8949 2.03883C31.2361 2.72555 30.4981 3.61477 29.7567 4.69453C29.0088 5.77125 28.253 7.0357 27.5241 8.45344C26.7905 9.86953 26.0852 11.4398 25.4199 13.1252C25.0915 13.9692 24.7629 14.8392 24.4554 15.7364C24.1438 16.6514 23.8465 17.5712 23.5636 18.4955C23.0044 20.3805 22.4827 22.3427 22.0406 24.3567C21.8106 25.3693 21.6034 26.3869 21.4191 27.4088C21.2334 28.4365 21.0488 29.4703 20.9013 30.5121C20.7517 31.556 20.6201 32.6024 20.5064 33.6509C20.4481 34.1775 20.3999 34.7053 20.3618 35.2338L20.307 36.0185C20.2955 36.1907 20.2881 36.3631 20.2849 36.5355C20.2767 36.7303 20.2859 36.927 20.2908 37.1227C20.3428 38.6948 20.8427 40.2469 21.645 41.5631C22.3254 42.6772 23.2329 43.6354 24.3085 44.3752L20.2791 44.7267C18.158 44.9119 16.042 45.1357 13.931 45.3982L13.7869 45.3867C13.6861 45.375 13.5858 45.3589 13.4864 45.3384C13.2902 45.2939 13.0964 45.2409 12.911 45.1598C12.8179 45.1193 12.7268 45.0743 12.638 45.0251C12.5501 44.9733 12.461 44.9217 12.3748 44.8643C12.2892 44.8048 12.2062 44.7418 12.1259 44.6754L12.0085 44.5702C11.972 44.532 11.9346 44.4947 11.8964 44.4584C11.8622 44.4179 11.8266 44.3786 11.7895 44.3407L11.6874 44.2184C11.6227 44.134 11.5606 44.0475 11.5029 43.9575C11.4469 43.8666 11.395 43.7732 11.3473 43.6777C11.2059 43.3872 11.1134 43.0753 11.0738 42.7547C11.0611 42.6452 11.0535 42.5351 11.051 42.4249C11.0536 42.3691 11.0517 42.3129 11.0517 42.2562C11.0562 42.1995 11.0592 42.1423 11.0606 42.0846L11.0991 41.748L11.1096 41.3032L11.1286 40.823L11.1799 39.8491C11.2172 39.1966 11.2702 38.5411 11.3208 37.8841C11.4216 36.5695 11.5603 35.2537 11.7138 33.9382C11.79 33.2803 11.8711 32.6222 11.9637 31.9662C12.0532 31.3092 12.1524 30.6537 12.2496 29.9972C12.35 29.3412 12.4582 28.6864 12.574 28.0329C12.6935 27.3806 12.8018 26.7237 12.9352 26.0738C13.0587 25.4205 13.2031 24.7732 13.3369 24.1209C13.4834 23.4736 13.6217 22.8211 13.7862 22.178C13.9374 21.5292 14.1056 20.8863 14.276 20.242C14.4565 19.6024 14.6238 18.9548 14.82 18.3185L15.1095 17.3599L15.4174 16.407C15.5168 16.0868 15.6312 15.7739 15.7385 15.4568C15.8492 15.1413 15.9499 14.8195 16.0697 14.5076L16.4227 13.5652C16.5394 13.2495 16.6751 12.9441 16.7949 12.6286C17.032 11.9955 17.3201 11.3897 17.5763 10.759L17.5889 10.7283C17.6455 10.5874 17.6496 10.4309 17.6003 10.2873C17.5511 10.1437 17.4518 10.0225 17.3207 9.94605C17.1896 9.86955 17.0353 9.84276 16.886 9.87058C16.7368 9.8984 16.6025 9.97897 16.5077 10.0976C16.0744 10.6425 15.6352 11.1907 15.232 11.7614C14.812 12.3239 14.4354 12.9122 14.0482 13.4981C13.8525 13.7904 13.676 14.0918 13.4888 14.3892C13.3014 14.6861 13.1216 14.9877 12.9495 15.2937L12.4277 16.2094L11.9337 17.1394C11.7685 17.4494 11.6087 17.7623 11.4544 18.0778C11.2988 18.3923 11.1375 18.7062 10.992 19.0252C10.696 19.6617 10.3988 20.2999 10.1231 20.9459C9.84025 21.5902 9.58478 22.2431 9.32017 22.8954C9.06347 23.5494 8.81805 24.2078 8.584 24.8702C8.344 25.5314 8.12111 26.197 7.90243 26.865C7.68787 27.5339 7.4813 28.2054 7.28275 28.8792C7.08223 29.5526 6.89368 30.2295 6.7172 30.9096C6.53742 31.5891 6.36607 32.2708 6.20322 32.9545C6.03657 33.638 5.88986 34.3254 5.74478 35.0145C5.60064 35.7035 5.46353 36.3945 5.33556 37.0887C5.20548 37.7827 5.09392 38.4804 4.98634 39.1833L4.83329 40.2438L4.76275 40.782L4.69642 41.3564L4.73486 41.0201L4.64931 41.5249C4.62694 41.6951 4.60764 41.8657 4.59142 42.0366C4.56381 42.381 4.5538 42.7266 4.56142 43.072C4.58802 44.1186 4.78718 45.1536 5.15087 46.1353C5.27286 46.4623 5.41156 46.7828 5.56642 47.0955C5.72337 47.4074 5.89594 47.7111 6.08345 48.0056C6.17884 48.1516 6.27868 48.2951 6.37829 48.4388C6.48189 48.5794 6.5897 48.7172 6.69798 48.8545L7.04111 49.2518C7.16085 49.3797 7.28235 49.506 7.40556 49.6305C7.65678 49.8761 7.92024 50.1088 8.19493 50.3278C8.4714 50.5467 8.76007 50.7497 9.05955 50.9358C9.36108 51.121 9.67213 51.2902 9.99142 51.4427C10.6317 51.7453 11.3058 51.9848 11.9991 52.1351C12.3455 52.2108 12.6952 52.2668 13.0458 52.3064C13.2211 52.3223 13.3969 52.3385 13.5722 52.3493L14.0979 52.3641C14.22 52.3666 14.3574 52.3605 14.4823 52.3437L14.5481 52.3348C16.7513 52.0371 18.9486 51.6972 21.1388 51.3155L27.713 50.1705C28.8087 49.9798 29.9049 49.7934 31.0027 49.6179L32.6501 49.3605C33.199 49.2729 33.7493 49.1977 34.2992 49.1161C34.8488 49.0348 35.399 48.9577 35.9499 48.8848C36.4985 48.813 37.0456 48.7289 37.5963 48.6729C37.174 49.5839 36.7943 50.591 36.4603 51.701C35.5215 51.8949 34.5786 52.0688 33.6324 52.2227C32.2574 52.4486 30.8778 52.6453 29.4945 52.8127C28.8035 52.9036 28.1103 52.9816 27.4163 53.0557C26.7235 53.1359 26.0274 53.1989 25.3322 53.2662C24.6373 53.3358 23.9393 53.3873 23.243 53.449L19.0556 53.7638L16.9622 53.9222C16.2642 53.9738 15.5688 54.0401 14.8718 54.0982C14.1769 54.1671 13.4808 54.2299 12.7875 54.3077C12.2888 54.3659 11.7895 54.4223 11.2913 54.4826C11.1666 54.4809 11.0419 54.4786 10.917 54.4798C10.7233 54.4863 10.5298 54.496 10.3364 54.5086C9.94717 54.5394 9.55999 54.5923 9.17673 54.667C8.40406 54.8175 7.65178 55.0584 6.9354 55.3847C6.57731 55.5473 6.22892 55.7305 5.89197 55.9334C5.55647 56.1367 5.23231 56.3582 4.92095 56.5969C4.61277 56.8378 4.317 57.0943 4.03478 57.3652C3.89556 57.502 3.76173 57.6443 3.62767 57.7859C3.49813 57.9315 3.37046 58.0788 3.2447 58.2277C3.12307 58.3798 3.00407 58.5341 2.88775 58.6903C2.77542 58.8493 2.66549 59.0099 2.55798 59.1722C2.34801 59.4999 2.15479 59.8381 1.97908 60.1854C1.62914 60.8817 1.35672 61.6144 1.16673 62.3702C0.979132 63.1249 0.874993 63.8979 0.856185 64.6753C0.847847 65.0607 0.859503 65.4462 0.891107 65.8303C0.910091 66.0209 0.930247 66.2114 0.956497 66.4003L1.05283 66.9623L1.03618 66.8166C1.04837 66.9157 1.06079 67.0083 1.07368 67.1081L1.14962 67.6563L1.31251 68.7342C1.42806 69.4463 1.54361 70.1522 1.68494 70.853C1.82354 71.5526 1.97073 72.2504 2.1265 72.9464C2.28306 73.6411 2.43751 74.3348 2.62033 75.0227C2.79767 75.7112 2.98354 76.3974 3.1779 77.0813C3.3677 77.7662 3.57267 78.4468 3.79267 79.1227C4.00949 79.7995 4.23435 80.4738 4.4672 81.1453C4.57876 81.4821 4.71025 81.8142 4.83212 82.1477C4.95464 82.4816 5.08144 82.8139 5.21251 83.1445C5.46751 83.8078 5.73517 84.4673 6.01736 85.1203C6.30704 85.7719 6.58783 86.4234 6.89556 87.0663C7.19861 87.7097 7.52486 88.3446 7.84876 88.977C8.00814 89.2941 8.18369 89.6058 8.35572 89.917C8.52728 90.2288 8.69908 90.5395 8.88189 90.8461C9.06306 91.1529 9.23791 91.4616 9.42353 91.7648L9.99611 92.6665C10.185 92.9678 10.3818 93.264 10.5865 93.5548C10.7911 93.8466 10.9847 94.1416 11.1975 94.4276C11.6199 95.0004 12.0422 95.568 12.4995 96.1125C12.9385 96.6659 13.426 97.1878 13.9034 97.7053C14.0022 97.8122 14.1346 97.8822 14.2787 97.9037C14.4227 97.9251 14.5697 97.8968 14.6955 97.8234C14.8212 97.75 14.9182 97.6358 14.9703 97.4999C15.0223 97.3639 15.0265 97.2142 14.982 97.0755L14.9717 97.0439C14.7595 96.3855 14.5195 95.7537 14.3182 95.103C14.2177 94.778 14.1021 94.4634 14.0058 94.1388L13.7112 93.1723C13.6085 92.854 13.5249 92.5259 13.4316 92.2048C13.342 91.8816 13.2438 91.5638 13.1616 91.2387L12.9045 90.2716L12.6628 89.3018C12.4969 88.6591 12.3638 88.0045 12.21 87.3614C12.0677 86.7131 11.9283 86.0667 11.8048 85.4154C11.6651 84.7706 11.5519 84.1167 11.4307 83.4689C11.3236 82.8155 11.1992 82.1695 11.0977 81.517C10.9854 80.8683 10.901 80.212 10.8 79.5623C10.7024 78.9115 10.6125 78.2595 10.5302 77.6065L10.2935 75.6485C10.2155 74.9967 10.1492 74.343 10.0873 73.6898L9.90611 71.733C9.85008 71.0825 9.80203 70.4313 9.76197 69.7795C9.72259 69.1294 9.67361 68.482 9.64431 67.8387L9.60376 66.8803L9.59017 66.4102C9.58736 66.2634 9.58337 66.0881 9.58572 65.9876L9.53415 65.5364C9.53673 65.4977 9.53744 65.4595 9.53626 65.422C9.53931 65.3845 9.544 65.348 9.54306 65.3119C9.55009 65.2397 9.5583 65.1698 9.57072 65.1019C9.59597 64.969 9.63606 64.8393 9.69025 64.7154C9.71744 64.6544 9.74556 64.5942 9.77673 64.5356C9.80931 64.4773 9.8447 64.421 9.88173 64.3657C9.92064 64.3113 9.96212 64.2591 10.0045 64.208C10.0275 64.1836 10.0514 64.1602 10.072 64.1344C10.0974 64.1121 10.1206 64.0887 10.1414 64.0636C10.1672 64.0425 10.1906 64.0198 10.2136 63.9966C10.2403 63.9769 10.2647 63.9555 10.2884 63.9335C10.3385 63.8923 10.3887 63.8524 10.4405 63.8154C10.4932 63.78 10.5438 63.7425 10.5973 63.7099C10.6519 63.6795 10.7037 63.6457 10.7585 63.6169C10.8691 63.5588 10.9832 63.5076 11.1 63.4636C11.1602 63.4413 11.2228 63.4245 11.2875 63.4024C11.3208 63.3959 11.3536 63.3851 11.3876 63.3762C11.4225 63.3717 11.4574 63.3635 11.4928 63.3527L12.2773 63.2829C12.957 63.1289 13.6331 62.9559 14.3107 62.7902C14.9878 62.6217 15.6621 62.4382 16.3376 62.2608C17.0112 62.0726 17.686 61.8926 18.3584 61.6978L20.3759 61.1173L24.1629 60.0256L23.8221 60.1966C22.6006 60.8309 21.5 61.6749 20.5706 62.6902C19.6065 63.7514 18.8394 64.9762 18.3056 66.307C18.027 66.979 17.8329 67.6882 17.6742 68.4068C17.6138 68.7698 17.5413 69.1331 17.505 69.5013L17.4558 70.0554C17.4495 70.1524 17.4382 70.2302 17.4368 70.3432L17.4324 70.6678C17.431 70.8844 17.4328 71.1014 17.4375 71.318L17.4396 71.3941L17.4429 71.441L17.4497 71.5345L17.4631 71.722L17.4764 71.9095L17.4832 72.0033L17.5008 72.2079L17.5062 72.2559L17.5502 72.641C17.6065 73.1555 17.6705 73.6697 17.7396 74.1839L17.9496 75.7282L18.1866 77.2702C18.512 79.3143 18.8971 81.3484 19.3413 83.37C19.5577 84.3715 19.7988 85.3608 20.0386 86.3377C20.2898 87.2998 20.5506 88.2594 20.821 89.2163C21.0835 90.161 21.3818 91.0809 21.6722 91.9826C21.822 92.4328 21.9631 92.8781 22.1168 93.3171C22.2748 93.7544 22.4255 94.1862 22.5879 94.6109C23.1796 96.2204 23.8461 97.8013 24.5855 99.3485C24.9217 100.043 25.2752 100.728 25.6456 101.405C25.9901 102.018 26.3499 102.622 26.7246 103.218L27.267 104.023L27.8025 104.76C27.9727 104.995 28.1642 105.212 28.3313 105.422C28.4938 105.624 28.6634 105.82 28.8399 106.011C29.1631 106.38 29.4975 106.689 29.7757 106.957C29.8413 107.023 29.9196 107.09 29.996 107.154L30.2117 107.335L30.5838 107.641L31.2089 108.044C31.4035 108.169 31.6308 108.234 31.8621 108.23C32.0934 108.226 32.3183 108.153 32.5083 108.021C32.7625 107.844 32.936 107.574 32.9906 107.269C33.0452 106.964 32.9765 106.65 32.7996 106.396L32.7966 106.392L32.3721 105.782L32.0344 105.142C31.8952 104.861 31.7337 104.551 31.5774 104.172C31.4871 103.978 31.4041 103.781 31.3287 103.581C31.2481 103.368 31.1576 103.156 31.0758 102.918L30.8156 102.188L30.5613 101.385C30.3765 100.792 30.2062 100.195 30.0506 99.5939C29.8699 98.9234 29.703 98.2492 29.5503 97.5717C29.2174 96.1533 28.9085 94.5938 28.5985 92.936L28.1496 90.3748C27.998 89.4996 27.8717 88.5975 27.7198 87.6855C27.5739 86.7564 27.4372 85.8258 27.3099 84.8939L26.9131 82.0263C26.6546 80.0738 26.4103 78.1193 26.1804 76.1632L25.8513 73.2197L25.6988 71.7572L25.6641 71.4241L25.6603 71.3646L25.6488 71.1769L25.6374 70.9894L25.6315 70.8956L25.6287 70.8487C25.628 70.8347 25.6301 70.8375 25.6308 70.8312C25.6416 70.7822 25.6457 70.732 25.6432 70.6819C25.6399 70.6702 25.6488 70.624 25.6505 70.5968L25.666 70.407C25.6744 70.2802 25.7081 70.1569 25.7196 70.0305C25.7555 69.9089 25.7742 69.7833 25.8122 69.6628C25.8579 69.5449 25.879 69.4191 25.9322 69.3042C26.1095 68.8341 26.3519 68.3912 26.6522 67.9884C26.9543 67.5902 27.3143 67.2443 27.7135 66.9452L27.8646 66.8339L27.904 66.8044L27.9774 66.7608L28.1238 66.6736L28.7013 66.3202C29.0799 66.0895 29.4562 65.8553 29.8303 65.6175C31.226 64.7375 32.5961 63.8174 33.9387 62.8584C34.2543 62.6325 34.5684 62.4045 34.8809 62.1743C34.8289 63.3408 34.8033 64.5082 34.804 65.6759C34.804 86.3798 42.1596 105.348 51.2332 105.348C60.3068 105.348 67.6624 86.3798 67.6624 65.6759C67.6624 64.4358 67.6352 63.2557 67.5837 62.13C67.9158 62.3753 68.2498 62.6181 68.5856 62.8584C69.9282 63.8176 71.2982 64.7377 72.694 65.6175C73.0641 65.8512 73.4393 66.0879 73.823 66.3202L74.4005 66.6736L74.547 66.7608L74.6203 66.8044L74.6597 66.8339L74.8109 66.9452C75.2103 67.2443 75.57 67.5902 75.8721 67.9884C76.1725 68.3912 76.4148 68.8341 76.5921 69.3042C76.6456 69.4191 76.6664 69.5449 76.7121 69.6628C76.7499 69.7833 76.7686 69.9089 76.8047 70.0305C76.8162 70.1569 76.8499 70.2799 76.8584 70.407L76.8738 70.5968C76.8755 70.624 76.8842 70.6699 76.8811 70.6819C76.8786 70.732 76.8828 70.7822 76.8935 70.8312C76.894 70.8375 76.8963 70.8347 76.8956 70.8487L76.8928 70.8956L76.887 70.9894L76.8755 71.1769L76.864 71.3646L76.8603 71.4241L76.8256 71.7572L76.673 73.2197L76.3439 76.1632C76.1141 78.1193 75.8699 80.0738 75.6113 82.0263L75.2145 84.8939C75.0871 85.8258 74.9504 86.7564 74.8046 87.6855C74.6527 88.5975 74.5263 89.4996 74.3747 90.3748L73.9259 92.936C73.6156 94.5938 73.3069 96.1533 72.9741 97.5717C72.8213 98.2492 72.6545 98.9234 72.4737 99.5939C72.3096 100.234 72.135 100.828 71.963 101.385L71.7087 102.188L71.4485 102.918C71.3667 103.156 71.2763 103.368 71.1956 103.581C71.1164 103.797 71.0302 103.989 70.947 104.172C70.7906 104.551 70.6294 104.861 70.4899 105.142L70.1522 105.782L69.7278 106.392L69.724 106.396C69.5702 106.618 69.4981 106.887 69.52 107.156C69.5419 107.425 69.6565 107.679 69.8441 107.873C70.0318 108.067 70.2809 108.191 70.5492 108.222C70.8175 108.253 71.0884 108.19 71.3156 108.044L71.9407 107.641L72.3129 107.335L72.5285 107.154C72.6049 107.09 72.6835 107.023 72.7488 106.957C73.0271 106.689 73.3615 106.38 73.6847 106.011C73.8521 105.827 74.0271 105.632 74.1933 105.422C74.3604 105.212 74.5519 104.995 74.722 104.76L75.2576 104.023L75.7999 103.218C76.1747 102.622 76.5345 102.018 76.879 101.405C77.2494 100.728 77.6029 100.043 77.9391 99.3485C78.6784 97.8013 79.345 96.2204 79.9367 94.6109C80.0991 94.1862 80.2498 93.7544 80.4078 93.3171C80.5617 92.8781 80.7028 92.433 80.8524 91.9826C81.1428 91.0809 81.4411 90.161 81.7036 89.2163C81.974 88.2594 82.2348 87.2998 82.486 86.3377C82.7257 85.3608 82.9669 84.3715 83.1832 83.37C83.6275 81.3484 84.0126 79.3143 84.338 77.2702L84.5749 75.7282L84.7849 74.1839C84.8538 73.6697 84.9181 73.1552 84.9743 72.641L85.0184 72.2559L85.0238 72.2079L85.0414 72.0033L85.0481 71.9095L85.0615 71.722L85.0749 71.5345L85.0817 71.441L85.0849 71.3941L85.087 71.318C85.0917 71.1014 85.0936 70.8844 85.0922 70.6678L85.0878 70.3432C85.0863 70.2302 85.0751 70.1524 85.0688 70.0554L85.0195 69.5013C84.9832 69.1331 84.9108 68.7698 84.8503 68.4068C84.6919 67.688 84.4978 66.9788 84.2189 66.307C83.6853 64.9762 82.9182 63.7513 81.9539 62.6902C81.0246 61.6749 79.924 60.8309 78.7024 60.1966L78.3617 60.0256L82.1487 61.1173L84.1662 61.6978C84.8384 61.8926 85.5134 62.0726 86.187 62.2608C86.8624 62.4382 87.5367 62.6217 88.2138 62.7902C88.8914 62.9559 89.5676 63.1291 90.2473 63.2829L91.0317 63.3527C91.0671 63.3635 91.1021 63.3717 91.137 63.3762C91.171 63.3853 91.2038 63.3961 91.2371 63.4024C91.3017 63.4242 91.3643 63.4413 91.4246 63.4636C91.5448 63.5084 91.6563 63.5599 91.7663 63.6169C91.8211 63.6457 91.8729 63.6797 91.9275 63.7099C91.981 63.7425 92.0316 63.78 92.0843 63.8154C92.1361 63.8524 92.1863 63.8923 92.2364 63.9335C92.2601 63.9555 92.2845 63.9769 92.3112 63.9966C92.3342 64.0198 92.3576 64.0427 92.3834 64.0636C92.4045 64.0887 92.4274 64.1121 92.4528 64.1344C92.4734 64.1602 92.4971 64.1836 92.5203 64.208C92.5624 64.2593 92.6042 64.3113 92.6431 64.3657C92.6801 64.421 92.7155 64.4775 92.7481 64.5356C92.7795 64.5942 92.8074 64.6542 92.8345 64.7154C92.888 64.8377 92.9281 64.9662 92.9541 65.1019C92.9665 65.1698 92.9749 65.2397 92.9817 65.3119C92.9808 65.3482 92.9855 65.3848 92.9885 65.422C92.9873 65.4602 92.988 65.4983 92.9906 65.5364L92.9391 65.9876C92.9417 66.0881 92.9377 66.2634 92.9349 66.4102L92.9213 66.8803L92.8807 67.8387C92.8514 68.482 92.8027 69.1294 92.7631 69.7795C92.723 70.4313 92.675 71.0825 92.6189 71.733L92.4378 73.6898C92.3772 74.3436 92.3084 74.9965 92.2315 75.6485L91.9948 77.6065C91.9126 78.2595 91.8227 78.9115 91.725 79.5623C91.624 80.212 91.5399 80.8683 91.4274 81.517C91.3259 82.1695 91.2014 82.8155 91.0943 83.4689C90.9731 84.1167 90.8599 84.7706 90.7203 85.4154C90.5967 86.0667 90.4573 86.7131 90.315 87.3614C90.1613 88.0043 90.0281 88.6589 89.8622 89.3018L89.6206 90.2716L89.3635 91.2387C89.281 91.564 89.183 91.8818 89.0935 92.2048C88.9999 92.5259 88.9163 92.854 88.8136 93.1723L88.519 94.1388C88.4227 94.4634 88.3071 94.7782 88.2066 95.103C88.0052 95.7534 87.7653 96.3855 87.5531 97.0439L87.5426 97.0762C87.4981 97.215 87.5022 97.3647 87.5543 97.5008C87.6065 97.6368 87.7035 97.7509 87.8294 97.8243C87.9552 97.8977 88.1023 97.926 88.2464 97.9044C88.3905 97.8828 88.5229 97.8126 88.6217 97.7055C89.0991 97.188 89.5866 96.6663 90.0256 96.1127C90.4828 95.5683 90.9052 95.0006 91.3275 94.4278C91.5403 94.1419 91.7337 93.8468 91.9385 93.555C92.1431 93.2642 92.34 92.968 92.5289 92.6667L93.1015 91.7651C93.2871 91.462 93.462 91.1534 93.6431 90.8463C93.826 90.5398 93.9977 90.229 94.1693 89.9173C94.3413 89.6058 94.5167 89.2941 94.6763 88.9772C95.0004 88.3446 95.3264 87.7099 95.6295 87.0666C95.9374 86.4237 96.218 85.7721 96.5077 85.1206C96.7899 84.4676 97.0575 83.8081 97.3125 83.1448C97.4435 82.8138 97.5708 82.4815 97.6929 82.148C97.8148 81.8145 97.9463 81.4821 98.0578 81.1456C98.2906 80.474 98.5154 79.7997 98.7324 79.1229C98.9506 78.4463 99.1589 77.7661 99.3471 77.0815C99.5415 76.3976 99.7274 75.7114 99.9047 75.023C100.088 74.3351 100.242 73.6413 100.399 72.9466C100.553 72.2517 100.701 71.5545 100.84 70.8532C100.981 70.1524 101.097 69.4465 101.213 68.7345L101.376 67.6584L101.452 67.1102C101.465 67.0102 101.477 66.9173 101.49 66.818L101.473 66.9645L101.569 66.4024C101.596 66.2135 101.616 66.0227 101.635 65.8324C101.666 65.4499 101.678 65.0644 101.67 64.6774C101.652 63.8999 101.549 63.1266 101.361 62.3719Z" fill="black"/>
</svg>
