<svg width="47" height="46" viewBox="0 0 47 46" fill="none" xmlns="http://www.w3.org/2000/svg">
<rect width="47" height="46" fill="white"/>
<path d="M23.5 22.9998C21.3458 22.9998 19.5017 22.2491 17.9677 20.7478C16.4337 19.2464 15.6667 17.4415 15.6667 15.3332C15.6667 13.2248 16.4337 11.42 17.9677 9.91859C19.5017 8.4172 21.3458 7.6665 23.5 7.6665C25.6542 7.6665 27.4983 8.4172 29.0323 9.91859C30.5663 11.42 31.3333 13.2248 31.3333 15.3332C31.3333 17.4415 30.5663 19.2464 29.0323 20.7478C27.4983 22.2491 25.6542 22.9998 23.5 22.9998ZM7.83333 38.3332V32.9665C7.83333 31.8804 8.11925 30.8824 8.69108 29.9727C9.26291 29.0629 10.0214 28.3678 10.9667 27.8873C12.9903 26.8971 15.0465 26.1547 17.1354 25.6602C19.2243 25.1657 21.3458 24.9178 23.5 24.9165C25.6542 24.9165 27.7757 25.1644 29.8646 25.6602C31.9535 26.1559 34.0097 26.8983 36.0333 27.8873C36.9799 28.3665 37.739 29.0616 38.3109 29.9727C38.8827 30.8837 39.168 31.8817 39.1667 32.9665V38.3332H7.83333Z" fill="#0057FF"/>
</svg>
