<svg width="47" height="48" viewBox="0 0 47 48" fill="none" xmlns="http://www.w3.org/2000/svg">
<rect width="47" height="48" fill="white"/>
<path d="M16.3521 5.99981C18.6629 5.65981 21.1108 8.23981 21.8158 11.7998C22.5208 15.3398 21.2479 18.4998 18.9371 18.8598C16.6458 19.2198 14.1783 16.6398 13.4538 13.0798C12.7292 9.53981 14.0413 6.37981 16.3521 5.99981ZM30.3542 5.99981C32.6846 6.37981 33.9771 9.53981 33.2917 13.0798C32.5475 16.6398 30.0996 19.2198 27.7888 18.8598C25.4583 18.4998 24.1854 15.3398 24.91 11.7998C25.615 8.23981 28.0629 5.65981 30.3542 5.99981ZM5.87501 15.1998C8.1075 14.2198 11.1429 15.9998 12.7292 19.0998C14.2175 22.2598 13.7083 25.5798 11.4954 26.5598C9.2825 27.5398 6.26667 25.7798 4.71959 22.6398C3.17251 19.4998 3.72084 16.1598 5.87501 15.1998ZM41.125 15.1998C43.2792 16.1598 43.8275 19.4998 42.2804 22.6398C40.7333 25.7798 37.7175 27.5398 35.5046 26.5598C33.2917 25.5798 32.7825 22.2598 34.2708 19.0998C35.8571 15.9998 38.8925 14.2198 41.125 15.1998ZM37.8546 36.7598C37.9329 38.6398 36.5229 40.7198 34.8388 41.4998C31.3333 43.1398 27.1817 39.7398 23.2846 39.7398C19.3875 39.7398 15.1967 43.2798 11.75 41.4998C9.79167 40.5198 8.44042 37.9198 8.695 35.7598C9.0475 32.7798 12.5529 31.1798 14.6288 28.9998C17.39 26.1798 19.3483 20.8798 23.2846 20.8798C27.2013 20.8798 29.2771 26.0998 31.9208 28.9998C34.0946 31.4398 37.7175 33.4998 37.8546 36.7598Z" fill="#0019FE"/>
</svg>
