<svg width="47" height="48" viewBox="0 0 47 48" fill="none" xmlns="http://www.w3.org/2000/svg">
<rect width="47" height="48" fill="white"/>
<path d="M28.2 4.7998C27.4245 4.7998 26.2871 5.0278 25.3095 5.7454C24.2755 6.5086 23.5 7.7686 23.5 9.5998V12.607C23.5081 13.0263 23.6354 13.434 23.8666 13.7806C24.0875 14.095 24.4682 14.4046 25.2601 14.4046C26.0521 14.4046 26.4328 14.095 26.6537 13.7806C26.8852 13.4342 27.0126 13.0263 27.0203 12.607C27.0203 12.2887 27.1441 11.9835 27.3644 11.7585C27.5848 11.5334 27.8837 11.407 28.1953 11.407C28.5069 11.407 28.8058 11.5334 29.0261 11.7585C29.2465 11.9835 29.3703 12.2887 29.3703 12.607C29.3703 13.3006 29.1776 14.311 28.5619 15.1822C27.9039 16.1182 26.8182 16.8046 25.2601 16.8046C24.5081 16.8046 23.8619 16.6438 23.3237 16.3726C22.9877 19.0414 22.0077 22.627 19.1431 25.5502C16.591 28.159 15.3384 31.3894 14.7227 33.9094C14.3942 35.2598 14.1897 36.6386 14.1117 38.0278C14.1076 38.1158 14.1045 38.2038 14.1023 38.2918V38.3662L14.1 38.3902V38.3998C14.1 38.4118 14.1 38.4358 14.0953 38.4694C14.0676 38.8847 13.9615 39.2905 13.7827 39.6646C13.6379 39.9766 13.415 40.244 13.1365 40.4398C12.8545 40.6318 12.4268 40.7998 11.75 40.7998C10.7635 40.7998 9.80211 40.4828 9.00186 39.8938C8.20161 39.3047 7.60313 38.4734 7.29119 37.5177C6.97924 36.562 6.96966 35.5302 7.26378 34.5686C7.55791 33.607 8.14084 32.7643 8.93 32.1598C9.05344 32.0651 9.15741 31.9465 9.23597 31.8107C9.31452 31.675 9.36613 31.5248 9.38784 31.3687C9.40956 31.2125 9.40095 31.0536 9.36251 30.9009C9.32407 30.7482 9.25656 30.6047 9.16382 30.4786C9.07109 30.3525 8.95494 30.2464 8.82203 30.1661C8.68911 30.0859 8.54202 30.0332 8.38916 30.011C8.2363 29.9888 8.08066 29.9976 7.93112 30.0369C7.78159 30.0761 7.64109 30.1451 7.51765 30.2398C6.33375 31.1466 5.45928 32.4109 5.01815 33.8536C4.57702 35.2962 4.59159 36.8441 5.0598 38.2778C5.52801 39.7115 6.42612 40.9584 7.62687 41.8418C8.82762 42.7252 10.2701 43.2003 11.75 43.1998H30.55V41.9998C30.55 41.0278 30.1082 39.4894 28.8274 38.803C28.2682 38.5195 27.6491 38.381 27.025 38.3998H24.675C24.3634 38.3998 24.0645 38.2734 23.8441 38.0483C23.6238 37.8233 23.5 37.5181 23.5 37.1998C23.5 36.8815 23.6238 36.5763 23.8441 36.3513C24.0645 36.1262 24.3634 35.9998 24.675 35.9998H27.025C27.4386 35.9998 27.8287 36.0334 28.2 36.0958V29.9998C28.2 29.6815 28.3238 29.3763 28.5441 29.1513C28.7645 28.9262 29.0634 28.7998 29.375 28.7998C29.6866 28.7998 29.9855 28.9262 30.2058 29.1513C30.4262 29.3763 30.55 29.6815 30.55 29.9998V37.075C32.4065 38.443 32.9 40.7182 32.9 41.9998V43.1998H38.775C39.0866 43.1998 39.3855 43.0734 39.6058 42.8483C39.8262 42.6233 39.95 42.3181 39.95 41.9998C39.95 39.9118 39.2544 38.3446 38.0582 37.327C37.2498 36.6616 36.2788 36.2343 35.25 36.091V16.7998H36.425C37.3599 16.7998 38.2565 16.4205 38.9175 15.7454C39.5786 15.0703 39.95 14.1546 39.95 13.1998V10.279C39.9499 9.86488 39.8449 9.45781 39.6452 9.0974C39.4455 8.73698 39.1578 8.43548 38.8102 8.2222L34.6202 5.6542C33.7072 5.09503 32.6627 4.79971 31.5981 4.7998H28.2Z" fill="#0047FF"/>
</svg>
